<mxfile host="65bd71144e">
    <diagram id="If-pIO3oFzdAOcqvrFQ8" name="第 1 页">
        <mxGraphModel dx="1080" dy="721" grid="1" gridSize="10" guides="1" tooltips="1" connect="1" arrows="1" fold="1" page="1" pageScale="1" pageWidth="827" pageHeight="1169" math="0" shadow="0">
            <root>
                <mxCell id="0"/>
                <mxCell id="1" parent="0"/>
                <mxCell id="88" value="" style="rounded=1;whiteSpace=wrap;html=1;strokeWidth=2;" vertex="1" parent="1">
                    <mxGeometry x="120" y="280" width="400" height="200" as="geometry"/>
                </mxCell>
                <mxCell id="115" value="" style="group" vertex="1" connectable="0" parent="1">
                    <mxGeometry x="150" y="340" width="70" height="100" as="geometry"/>
                </mxCell>
                <mxCell id="116" value="" style="shape=partialRectangle;whiteSpace=wrap;html=1;bottom=0;top=0;fillColor=default;strokeWidth=2;" vertex="1" parent="115">
                    <mxGeometry width="40" height="60" as="geometry"/>
                </mxCell>
                <mxCell id="117" value="" style="shape=partialRectangle;whiteSpace=wrap;html=1;bottom=0;top=0;fillColor=default;strokeWidth=2;" vertex="1" parent="115">
                    <mxGeometry x="10" y="10" width="40" height="60" as="geometry"/>
                </mxCell>
                <mxCell id="118" value="" style="shape=partialRectangle;whiteSpace=wrap;html=1;bottom=0;top=0;fillColor=default;strokeWidth=2;" vertex="1" parent="115">
                    <mxGeometry x="20" y="20" width="40" height="60" as="geometry"/>
                </mxCell>
                <mxCell id="142" value="&lt;font face=&quot;Times New Roman&quot; style=&quot;font-size: 24px;&quot;&gt;Q1&lt;/font&gt;" style="text;html=1;align=center;verticalAlign=middle;resizable=0;points=[];autosize=1;strokeColor=none;fillColor=none;" vertex="1" parent="115">
                    <mxGeometry x="10" y="8" width="50" height="40" as="geometry"/>
                </mxCell>
                <mxCell id="130" value="&lt;font face=&quot;Times New Roman&quot; style=&quot;font-size: 24px;&quot;&gt;ATS-INTC&lt;/font&gt;" style="text;html=1;align=center;verticalAlign=middle;resizable=0;points=[];autosize=1;strokeColor=none;fillColor=none;" vertex="1" parent="1">
                    <mxGeometry x="255" y="480" width="130" height="40" as="geometry"/>
                </mxCell>
                <mxCell id="131" value="" style="group" vertex="1" connectable="0" parent="1">
                    <mxGeometry x="290" y="340" width="60" height="80" as="geometry"/>
                </mxCell>
                <mxCell id="132" value="" style="shape=partialRectangle;whiteSpace=wrap;html=1;bottom=0;top=0;fillColor=default;strokeWidth=2;" vertex="1" parent="131">
                    <mxGeometry width="40" height="60" as="geometry"/>
                </mxCell>
                <mxCell id="133" value="" style="shape=partialRectangle;whiteSpace=wrap;html=1;bottom=0;top=0;fillColor=default;strokeWidth=2;" vertex="1" parent="131">
                    <mxGeometry x="10" y="10" width="40" height="60" as="geometry"/>
                </mxCell>
                <mxCell id="134" value="" style="shape=partialRectangle;whiteSpace=wrap;html=1;bottom=0;top=0;fillColor=default;strokeWidth=2;" vertex="1" parent="131">
                    <mxGeometry x="20" y="20" width="40" height="60" as="geometry"/>
                </mxCell>
                <mxCell id="135" value="" style="group" vertex="1" connectable="0" parent="1">
                    <mxGeometry x="430" y="340" width="60" height="80" as="geometry"/>
                </mxCell>
                <mxCell id="136" value="" style="shape=partialRectangle;whiteSpace=wrap;html=1;bottom=0;top=0;fillColor=default;strokeWidth=2;" vertex="1" parent="135">
                    <mxGeometry width="40" height="60" as="geometry"/>
                </mxCell>
                <mxCell id="137" value="" style="shape=partialRectangle;whiteSpace=wrap;html=1;bottom=0;top=0;fillColor=default;strokeWidth=2;" vertex="1" parent="135">
                    <mxGeometry x="10" y="10" width="40" height="60" as="geometry"/>
                </mxCell>
                <mxCell id="138" value="" style="shape=partialRectangle;whiteSpace=wrap;html=1;bottom=0;top=0;fillColor=default;strokeWidth=2;" vertex="1" parent="135">
                    <mxGeometry x="20" y="20" width="40" height="60" as="geometry"/>
                </mxCell>
                <mxCell id="139" value="&lt;font face=&quot;Times New Roman&quot; style=&quot;font-size: 24px;&quot;&gt;PScheduler1&lt;/font&gt;" style="text;html=1;align=center;verticalAlign=middle;resizable=0;points=[];autosize=1;strokeColor=none;fillColor=none;" vertex="1" parent="1">
                    <mxGeometry x="120" y="440" width="140" height="40" as="geometry"/>
                </mxCell>
                <mxCell id="143" value="&lt;font face=&quot;Times New Roman&quot; style=&quot;font-size: 24px;&quot;&gt;QN&lt;/font&gt;" style="text;html=1;align=center;verticalAlign=middle;resizable=0;points=[];autosize=1;strokeColor=none;fillColor=none;" vertex="1" parent="1">
                    <mxGeometry x="139" y="317" width="60" height="40" as="geometry"/>
                </mxCell>
                <mxCell id="144" value="&lt;font face=&quot;Times New Roman&quot; style=&quot;font-size: 24px;&quot;&gt;PSchedulerM&lt;/font&gt;" style="text;html=1;align=center;verticalAlign=middle;resizable=0;points=[];autosize=1;strokeColor=none;fillColor=none;" vertex="1" parent="1">
                    <mxGeometry x="370" y="440" width="150" height="40" as="geometry"/>
                </mxCell>
            </root>
        </mxGraphModel>
    </diagram>
</mxfile>